<svg width="20" height="20" viewBox="0 0 20 20" fill="none" xmlns="http://www.w3.org/2000/svg">
<g clip-path="url(#clip0)">
<path d="M19.2562 0H0.81958C0.388062 0 0.0383301 0.349732 0.0383301 0.78125C0.0383301 2.95685 0.970948 5.03388 2.59708 6.47934L6.01856 9.52042C6.61182 10.0478 6.95209 10.8055 6.95209 11.5994V19.2178C6.95209 19.8404 7.64789 20.2136 8.16654 19.8677L12.7758 16.795C12.993 16.6501 13.1237 16.4063 13.1237 16.145V11.5994C13.1237 10.8055 13.4639 10.0478 14.0572 9.52042L17.4785 6.47934C19.1047 5.03388 20.0373 2.95685 20.0373 0.78125C20.0373 0.349732 19.6875 0 19.2562 0ZM16.4405 5.31143L13.0191 8.35266C12.0926 9.17633 11.5612 10.3597 11.5612 11.5993V15.7269L8.51444 17.758V11.5994C8.51444 10.3597 7.98297 9.17633 7.05646 8.35266L3.63513 5.31159C2.53864 4.3367 1.83872 3.00095 1.65134 1.56235H18.4243C18.2369 3.00095 17.5371 4.3367 16.4405 5.31143Z" fill="black"/>
</g>
<defs>
<clipPath id="clip0">
<rect width="20" height="20" fill="white"/>
</clipPath>
</defs>
</svg>
