<svg width="52" height="52" viewBox="0 0 52 52" fill="none" xmlns="http://www.w3.org/2000/svg">
<path d="M26 52C40.352 52 52 40.352 52 26C52 11.648 40.352 0 26 0C11.648 0 0 11.648 0 26C0 40.352 11.648 52 26 52ZM35.2798 24.1432H39.0022V20.423H42.7245V24.1453H46.4143V27.8677H42.7245V31.59H39.0022V27.8677H35.2798V24.1432ZM18.5878 12.9978C21.8682 12.9978 24.8885 14.1527 27.2913 16.3843L23.7683 19.8033C22.3838 18.4492 20.488 17.8013 18.5878 17.8013C14.0898 17.8013 10.4932 21.5237 10.4932 25.9892C10.4932 30.4547 14.079 34.177 18.5878 34.177C22.0047 34.177 25.3912 32.175 25.9372 28.5892H18.5878V24.1237H30.8447C30.9812 24.8365 31.044 25.5493 31.044 26.2925C31.044 33.7155 26.0628 38.9978 18.5878 38.9978V39C11.375 39 5.58567 33.1803 5.58567 25.9978C5.58567 18.8153 11.375 12.9978 18.5878 12.9978Z" fill="#000"/>
</svg>
