<svg width="24" height="22" viewBox="0 0 24 22" fill="none" xmlns="http://www.w3.org/2000/svg">
<path d="M21.4409 2.61464C20.4013 1.53806 18.9651 1 17.1316 1C16.6242 1 16.1063 1.09331 15.5785 1.27984C15.0505 1.46651 14.5594 1.71834 14.1055 2.03517C13.6511 2.3519 13.2606 2.64935 12.933 2.92704C12.6057 3.20483 12.2946 3.50004 12 3.81244C11.7053 3.50004 11.3943 3.20483 11.067 2.92704C10.7395 2.64935 10.3488 2.35209 9.89447 2.03517C9.44022 1.71821 8.94911 1.46655 8.42124 1.27984C7.89341 1.09336 7.37565 1 6.86824 1C5.03484 1 3.59855 1.5382 2.55915 2.61464C1.51974 3.69099 1 5.18396 1 7.09367C1 7.67529 1.09632 8.27446 1.28857 8.89046C1.48083 9.50679 1.69991 10.032 1.9454 10.466C2.19085 10.8999 2.46919 11.323 2.78021 11.7354C3.09123 12.1477 3.31853 12.4319 3.46159 12.5881C3.60478 12.7444 3.71736 12.8573 3.79919 12.9268L11.4598 20.7654C11.6072 20.9216 11.7872 21 12 21C12.2127 21 12.3929 20.9216 12.5402 20.7654L20.1886 12.9526C22.0629 10.9651 23 9.01196 23 7.09349C23 5.18364 22.4803 3.69081 21.4409 2.61464Z" stroke="black" stroke-width="1.5" stroke-linejoin="round"/>
</svg>
