<svg width="17" height="20" viewBox="0 0 17 20" fill="none" xmlns="http://www.w3.org/2000/svg">
<path d="M13.0859 2.53906H11.7969V1.17188C11.7969 0.525703 11.2712 0 10.625 0H5.54688C4.9007 0 4.375 0.525703 4.375 1.17188V2.53906H3.08594C1.38434 2.53906 0 3.9234 0 5.625C0 5.94859 0.262344 6.21094 0.585938 6.21094H1.30074L2.50242 19.467C2.52977 19.7688 2.78281 20 3.08594 20H13.0859C13.3891 20 13.6421 19.7688 13.6695 19.467L14.8711 6.21094H15.5859C15.9095 6.21094 16.1719 5.94859 16.1719 5.625C16.1719 3.9234 14.7875 2.53906 13.0859 2.53906ZM5.54613 1.17191C5.55023 1.17125 5.89051 1.17188 10.625 1.17188V2.53906H5.54664L5.54613 1.17191ZM3.08594 3.71094H13.0859C13.9371 3.71094 14.6603 4.26934 14.9083 5.03906C12.988 5.03906 3.15629 5.03906 1.26355 5.03906C1.5116 4.26934 2.2348 3.71094 3.08594 3.71094ZM12.5507 18.8281H3.62117L2.47738 6.21094H13.6945L12.5507 18.8281Z" fill="black"/>
</svg>
