<svg width="19" height="24" viewBox="0 0 19 24" fill="none" xmlns="http://www.w3.org/2000/svg">
<path d="M9.5 1C4.81367 1 1 4.72717 1 9.30958C1 15.8207 8.701 22.5435 9.02872 22.8258C9.16378 22.9422 9.33189 23 9.5 23C9.66811 23 9.83622 22.9423 9.97128 22.8268C10.299 22.5435 18 15.8207 18 9.30958C18 4.72717 14.1863 1 9.5 1ZM9.5 13.1C6.89617 13.1 6.1 12.6939 6.1 10.1667C6.1 7.63942 6.89617 7.05 9.5 7.05C12.1038 7.05 12.9 7.63942 12.9 10.1667C12.9 12.6939 12.1038 13.1 9.5 13.1Z" stroke="black" stroke-width="1.5"/>
</svg>
