<svg width="24" height="24" viewBox="0 0 24 24" fill="none" xmlns="http://www.w3.org/2000/svg">
<path fill-rule="evenodd" clip-rule="evenodd" d="M24 12C24 18.6274 18.6274 24 12 24C5.37258 24 0 18.6274 0 12C0 5.37258 5.37258 0 12 0C18.6274 0 24 5.37258 24 12ZM14.1094 12C14.1094 13.1649 13.1649 14.1094 12 14.1094C10.8351 14.1094 9.89062 13.1649 9.89062 12C9.89062 10.8351 10.8351 9.89062 12 9.89062C13.1649 9.89062 14.1094 10.8351 14.1094 12ZM8.4375 5.625H15.5625C17.1134 5.625 18.375 6.8866 18.375 8.4375V15.5625C18.375 17.1134 17.1134 18.375 15.5625 18.375H8.4375C6.8866 18.375 5.625 17.1134 5.625 15.5625V8.4375C5.625 6.8866 6.8866 5.625 8.4375 5.625ZM8.48438 12C8.48438 13.9385 10.0615 15.5156 12 15.5156C13.9385 15.5156 15.5156 13.9385 15.5156 12C15.5156 10.0615 13.9385 8.48438 12 8.48438C10.0615 8.48438 8.48438 10.0615 8.48438 12ZM15.3281 7.96875C15.3281 8.35712 15.6429 8.67188 16.0312 8.67188C16.4196 8.67188 16.7344 8.35712 16.7344 7.96875C16.7344 7.58038 16.4196 7.26562 16.0312 7.26562C15.6429 7.26562 15.3281 7.58038 15.3281 7.96875Z" fill="black"/>
</svg>
