<svg width="12" height="12" viewBox="0 0 12 12" fill="none" xmlns="http://www.w3.org/2000/svg">
<g clip-path="url(#clip0)">
<path d="M8.80624 7.74663C9.39674 6.94024 9.74996 5.94974 9.74996 4.87596C9.74996 2.18799 7.56294 0.000976562 4.87497 0.000976562C2.18699 0.000976562 0 2.18799 0 4.87596C0 7.56394 2.18701 9.75095 4.87499 9.75095C5.94877 9.75095 6.93936 9.39769 7.74575 8.80719L10.9395 12.0009L12 10.9404C12 10.9403 8.80624 7.74663 8.80624 7.74663ZM4.87499 8.25094C3.01391 8.25094 1.50001 6.73704 1.50001 4.87596C1.50001 3.01488 3.01391 1.50098 4.87499 1.50098C6.73607 1.50098 8.24997 3.01488 8.24997 4.87596C8.24997 6.73704 6.73605 8.25094 4.87499 8.25094Z" fill="black"/>
</g>
<defs>
<clipPath id="clip0">
<rect width="12" height="12" fill="white"/>
</clipPath>
</defs>
</svg>
