<svg width="32" height="32" viewBox="0 0 32 32" fill="none" xmlns="http://www.w3.org/2000/svg">
<path d="M30.375 16.9481V2.8125C30.375 1.26169 29.1133 0 27.5625 0H2.8125C1.26169 0 0 1.26169 0 2.8125V27.5625C0 29.1133 1.26169 30.375 2.8125 30.375H16.948C18.4849 31.401 20.3299 32 22.3125 32C27.6543 32 32 27.6542 32 22.3125C32 20.33 31.401 18.4849 30.375 16.9481ZM28.5 2.8125V14.8644C26.8206 13.4668 24.6631 12.625 22.3125 12.625C19.9619 12.625 17.8044 13.4668 16.125 14.8644V1.875H27.5625C28.0794 1.875 28.5 2.29556 28.5 2.8125ZM2.8125 1.875H14.25V14.25H1.875V2.8125C1.875 2.29556 2.29556 1.875 2.8125 1.875ZM1.875 27.5625V16.125H14.25V16.9481C13.224 18.4849 12.625 20.33 12.625 22.3125C12.625 24.6631 13.4668 26.8206 14.8644 28.5H2.8125C2.29556 28.5 1.875 28.0794 1.875 27.5625ZM22.3125 30.125C18.0047 30.125 14.5 26.6203 14.5 22.3125C14.5 18.0047 18.0047 14.5 22.3125 14.5C26.6203 14.5 30.125 18.0047 30.125 22.3125C30.125 26.6203 26.6203 30.125 22.3125 30.125Z" fill="black"/>
<path fill-rule="evenodd" clip-rule="evenodd" d="M8.72726 5.81812H7.27272V7.27263H5.81818L5.81818 8.72718H7.27272V10.1818H8.72726V8.72718H10.1818V7.27263H8.72726V5.81812Z" fill="black"/>
<path fill-rule="evenodd" clip-rule="evenodd" d="M24.7273 7.27271V8.72725L20.3637 8.72725L20.3637 7.27271H24.7273ZM26.1818 20.3636V21.8181H18.9091L18.9091 20.3636H26.1818ZM26.1818 24.7273V23.2727H18.9091L18.9091 24.7273H26.1818Z" fill="black"/>
<path fill-rule="evenodd" clip-rule="evenodd" d="M10.0562 21.516L9.02768 20.4875L7.99918 21.516L6.9715 20.4883L5.94298 21.5168L6.97066 22.5445L5.94212 23.5731L6.97064 24.6016L7.99918 23.573L9.02854 24.6024L10.0571 23.5739L9.0277 22.5445L10.0562 21.516Z" fill="black"/>
</svg>
