<svg width="24" height="24" viewBox="0 0 24 24" fill="none" xmlns="http://www.w3.org/2000/svg">
<path d="M23.8475 12.4668C23.6331 12.7601 18.5245 19.6483 11.9999 19.6483C5.47529 19.6483 0.366469 12.7601 0.152297 12.4671C-0.0507657 12.1888 -0.0507657 11.8114 0.152297 11.5332C0.366469 11.2399 5.47529 4.35161 11.9999 4.35161C18.5245 4.35161 23.6331 11.2399 23.8475 11.5329C24.0508 11.8111 24.0508 12.1888 23.8475 12.4668ZM11.9999 5.93402C7.19383 5.93402 3.03127 10.5059 1.79907 12.0005C3.02968 13.4964 7.18351 18.0659 11.9999 18.0659C16.8057 18.0659 20.968 13.4948 22.2007 11.9994C20.9701 10.5035 16.8162 5.93402 11.9999 5.93402Z" fill="black"/>
<path d="M11.9997 16.7472C9.38212 16.7472 7.25244 14.6175 7.25244 11.9999C7.25244 9.38232 9.38212 7.25264 11.9997 7.25264C14.6173 7.25264 16.747 9.38232 16.747 11.9999C16.747 14.6175 14.6173 16.7472 11.9997 16.7472ZM11.9997 8.8351C10.2546 8.8351 8.8349 10.2548 8.8349 11.9999C8.8349 13.745 10.2546 15.1647 11.9997 15.1647C13.7448 15.1647 15.1645 13.745 15.1645 11.9999C15.1645 10.2548 13.7449 8.8351 11.9997 8.8351Z" fill="black"/>
</svg>
