<svg width="26" height="26" viewBox="0 0 26 26" fill="none" xmlns="http://www.w3.org/2000/svg">
<g clip-path="url(#clip0)">
<path d="M25.0844 15.0509C25.8601 8.52165 24.7118 4.39957 22.6404 2.53515L22.6415 2.53407C19.2983 -0.649852 8.00784 -1.1211 4.00818 2.67707C2.21201 4.53498 1.57934 7.26174 1.51001 10.6374C1.44068 14.0142 1.35834 20.3397 7.25276 22.0557H7.25817L7.25276 24.6763C7.25276 24.6763 7.21268 25.738 7.89084 25.9514C8.66651 26.2027 9.01751 25.7098 11.4301 22.8282C15.4644 23.1781 18.5628 22.3764 18.9148 22.2594C19.7295 21.9864 24.3391 21.3765 25.0844 15.0509ZM11.8277 20.9843C11.8277 20.9843 9.27426 24.1682 8.48018 24.9948C8.22018 25.2635 7.93526 25.2386 7.93959 24.7056C7.93959 24.3557 7.95909 20.3549 7.95909 20.3549C2.96168 18.9227 3.25634 13.5364 3.31051 10.7187C3.36468 7.89982 3.88034 5.59124 5.40134 4.03665C8.91026 0.746566 18.8087 1.48215 21.3307 3.85248C24.4138 6.58574 23.3164 14.3077 23.3229 14.571C22.6892 19.8512 18.9538 20.1859 18.267 20.4145C17.9734 20.512 15.2488 21.2129 11.8277 20.9843Z" fill="#4A67B0"/>
<path d="M13.2401 4.65479C12.823 4.65479 12.823 5.30479 13.2401 5.3102C16.476 5.33512 19.141 7.59062 19.1702 11.7279C19.1702 12.1645 19.8094 12.159 19.804 11.7225H19.8029C19.7682 7.26454 16.8584 4.6797 13.2401 4.65479Z" fill="#4A67B0"/>
<path d="M17.4967 11.0425C17.487 11.4736 18.125 11.4942 18.1305 11.0576C18.1835 8.59954 16.668 6.57479 13.8199 6.36137C13.4028 6.33104 13.3594 6.98646 13.7754 7.01679C16.2454 7.20421 17.5465 8.88988 17.4967 11.0425Z" fill="#4A67B0"/>
<path d="M16.8146 13.8383C16.2794 13.5285 15.7345 13.7213 15.5091 14.0257L15.0379 14.6356C14.7985 14.9454 14.3511 14.9043 14.3511 14.9043C11.0859 14.0409 10.2127 10.624 10.2127 10.624C10.2127 10.624 10.1726 10.1615 10.4716 9.91337L11.061 9.42587C11.3556 9.19187 11.542 8.62854 11.2419 8.07495C10.4402 6.62654 9.90181 6.12712 9.62773 5.74362C9.33956 5.38287 8.90623 5.30162 8.45556 5.54537H8.44581C7.50873 6.09354 6.48282 7.11945 6.81107 8.1757C7.37115 9.28937 8.40031 12.8394 11.6806 15.5218C13.2222 16.7904 15.6619 18.0904 16.6976 18.3904L16.7073 18.4056C17.7278 18.7458 18.7201 17.6798 19.2499 16.7145V16.7069C19.485 16.24 19.407 15.798 19.0635 15.5088C18.4547 14.9151 17.5361 14.2597 16.8146 13.8383Z" fill="#4A67B0"/>
<path d="M14.2665 8.77916C15.3076 8.83983 15.8124 9.38366 15.8666 10.5006C15.8861 10.9372 16.5198 10.9068 16.5003 10.4702C16.431 9.01208 15.6705 8.19957 14.3011 8.12374C13.884 8.09882 13.845 8.75424 14.2665 8.77916Z" fill="#4A67B0"/>
</g>
<defs>
<clipPath id="clip0">
<rect width="26" height="26" fill="white"/>
</clipPath>
</defs>
</svg>
