<svg width="23" height="22" viewBox="0 0 23 22" fill="none" xmlns="http://www.w3.org/2000/svg">
<path d="M18.6614 13.5114C17.9025 12.7978 16.955 12.7978 16.2008 13.5114C15.6256 14.0547 15.0503 14.5979 14.4847 15.1504C14.33 15.3023 14.1995 15.3345 14.011 15.2333C13.6388 15.0399 13.2424 14.8834 12.8846 14.6716C11.2169 13.6726 9.81979 12.3881 8.58225 10.9425C7.96832 10.2243 7.42206 9.45547 7.04016 8.58996C6.96282 8.41501 6.97732 8.29992 7.12718 8.1572C7.70244 7.62776 8.2632 7.08451 8.82879 6.54126C9.61676 5.78624 9.61676 4.90231 8.82396 4.14268C8.37438 3.70992 7.92481 3.28637 7.47523 2.85361C7.01116 2.41164 6.55192 1.96507 6.08301 1.52771C5.32405 0.82333 4.37656 0.82333 3.62243 1.53232C3.04234 2.07557 2.48641 2.63263 1.89665 3.16667C1.35039 3.65928 1.07485 4.26238 1.01684 4.96676C0.924987 6.11311 1.21987 7.195 1.6356 8.24928C2.48641 10.4315 3.78196 12.3697 5.35305 14.1468C7.47524 16.5499 10.0083 18.4513 12.9716 19.8233C14.3059 20.4402 15.6884 20.9144 17.1918 20.9926C18.2263 21.0479 19.1255 20.7993 19.8458 20.0304C20.3389 19.5056 20.8948 19.0268 21.4169 18.525C22.1903 17.7792 22.1952 16.8768 21.4265 16.1402C20.5081 15.2609 19.5847 14.3862 18.6614 13.5114Z" stroke="black" stroke-width="1.5"/>
</svg>
