<svg width="20" height="16" viewBox="0 0 20 16" fill="none" xmlns="http://www.w3.org/2000/svg">
<path fill-rule="evenodd" clip-rule="evenodd" d="M9.00027 0.399902H8.66965L8.49304 0.679394L4.83632 6.46636H1.00027H0.297852L0.40764 7.16014C0.952531 10.6034 1.98445 12.7376 3.04456 14.0027C3.57443 14.635 4.11423 15.0531 4.60476 15.3027C5.04824 15.5283 5.503 15.6408 5.88332 15.5865H5.89049H5.90002H5.90957H5.91913H5.9287H5.93829H5.94789H5.95751H5.96714H5.97679H5.98645H5.99612H6.00581H6.01551H6.02523H6.03496H6.04471H6.05447H6.06424H6.07403H6.08384H6.09365H6.10349H6.11334H6.1232H6.13307H6.14297H6.15287H6.16279H6.17273H6.18268H6.19265H6.20263H6.21262H6.22263H6.23266H6.2427H6.25275H6.26282H6.27291H6.28301H6.29312H6.30325H6.31339H6.32355H6.33373H6.34392H6.35412H6.36435H6.37458H6.38483H6.3951H6.40538H6.41568H6.42599H6.43631H6.44666H6.45702H6.46739H6.47778H6.48818H6.4986H6.50904H6.51949H6.52995H6.54044H6.55093H6.56145H6.57197H6.58252H6.59308H6.60365H6.61424H6.62485H6.63547H6.64611H6.65677H6.66744H6.67812H6.68883H6.69954H6.71028H6.72103H6.73179H6.74257H6.75337H6.76418H6.77501H6.78586H6.79672H6.8076H6.81849H6.8294H6.84033H6.85127H6.86223H6.87321H6.8842H6.8952H6.90623H6.91727H6.92832H6.9394H6.95049H6.96159H6.97271H6.98385H6.99501H7.00618H7.01737H7.02857H7.03979H7.05103H7.06229H7.07356H7.08485H7.09615H7.10747H7.11881H7.13016H7.14154H7.15292H7.16433H7.17575H7.18719H7.19865H7.21012H7.22161H7.23311H7.24464H7.25618H7.26774H7.27931H7.2909H7.30251H7.31414H7.32578H7.33744H7.34912H7.36081H7.37252H7.38425H7.396H7.40776H7.41954H7.43134H7.44316H7.45499H7.46684H7.47871H7.49059H7.5025H7.51442H7.52636H7.53831H7.55028H7.56227H7.57428H7.58631H7.59835H7.61041H7.62249H7.63459H7.6467H7.65883H7.67098H7.68315H7.69534H7.70754H7.71976H7.732H7.74426H7.75653H7.76883H7.78114H7.79347H7.80581H7.81818H7.83056H7.84296H7.85538H7.86782H7.88027H7.89275H7.90524H7.91775H7.93028H7.94283H7.95539H7.96797H7.98058H7.9932H8.00584H8.01849H8.03117H8.04386H8.05657H8.0693H8.08205H8.09482H8.10761H8.12041H8.13324H8.14608H8.15894H8.17182H8.18472H8.19763H8.21057H8.22353H8.2365H8.24949H8.2625H8.27553H8.28858H8.30165H8.31473H8.32784H8.34096H8.35411H8.36727H8.38045H8.39365H8.40687H8.42011H8.43337H8.44665H8.45994H8.47326H8.48659H8.49995H8.51332H8.52671H8.54012H8.55355H8.56701H8.58047H8.59396H8.60747H8.621H8.63455H8.64812H8.6617H8.67531H8.68893H8.70258H8.71624H8.72993H8.74363H8.75736H8.7711H8.78486H8.79865H8.81245H8.82627H8.84011H8.85397H8.86786H8.88176H8.89568H8.90962H8.92358H8.93756H8.95156H8.96559H8.97963H8.99369H9.00777H9.02187H9.03599H9.05014H9.0643H9.07848H9.09268H9.1069H9.12115H9.13541H9.14969H9.164H9.17832H9.19267H9.20703H9.22142H9.23582H9.25025H9.2647H9.27916H9.29365H9.30816H9.32269H9.33724H9.35181H9.3664H9.38101H9.39564H9.41029H9.42496H9.43966H9.45437H9.46911H9.48386H9.49864H9.51344H9.52826H9.5431H9.55796H9.57284H9.58774H9.60267H9.61761H9.63258H9.64756H9.66257H9.6776H9.69265H9.70772H9.72281H9.73793H9.75306H9.76822H9.78339H9.79859H9.81381H9.82905H9.84431H9.8596H9.8749H9.89023H9.90558H9.92095H9.93634H9.95175H9.96718H9.98264H9.99812H10.0136H10.0291H10.0447H10.0602H10.0758H10.0914H10.1071H10.1227H10.1384H10.1541H10.1698H10.1855H10.2013H10.2171H10.2329H10.2487H10.2645H10.2804H10.2963H10.3122H10.3282H10.3441H10.3601H10.3761H10.3921H10.4082H10.4242H10.4403H10.4564H10.4726H10.4887H10.5049H10.5211H10.5373H10.5536H10.5698H10.5861H10.6024H10.6188H10.6351H10.6515H10.6679H10.6843H10.7008H10.7173H10.7338H10.7503H10.7668H10.7834H10.7999H10.8166H10.8332H10.8498H10.8665H10.8832H10.8999H10.9167H10.9334H10.9502H10.967H10.9839H11.0007H11.0176H11.0345H11.0514H11.0684H11.0854H11.1024H11.1194H11.1364H11.1535H11.1706H11.1877H11.2048H11.222H11.2392H11.2564H11.2736H11.2908H11.3081H11.3254H11.3427H11.3601H11.3774H11.3948H11.4123H11.4297H11.4472H11.4646H11.4822H11.4997H11.5172H11.5348H11.5524H11.5701H11.5877H11.6054H11.6231H11.6408H11.6585H11.6763H11.6941H11.7119H11.7298H11.7476H11.7655H11.7834H11.8014H11.8193H11.8373H11.8553H11.8734H11.8914H11.9095H11.9276H11.9457H11.9639H11.9821H12.0003H12.0185H12.0368H12.055H12.0733H12.0917H12.11H12.1284H12.1468H12.1652H12.1836H12.2021H12.2206H12.2391H12.2577H12.2762H12.2948H12.3134H12.3321H12.3508H12.3694H12.3882H12.4069H12.4257H12.4445H12.4633H12.4821H12.501H12.5199H12.5388H12.5577H12.5767H12.5957H12.6147H12.6337H12.6528H12.6719H12.691H12.7101H12.7293H12.7485H12.7677H12.787H12.8062H12.8255H12.8448H12.8642H12.8835H12.9029H12.9223H12.9418H12.9613H12.9807H13.0003V14.3865H12.9807H12.9613H12.9418H12.9223H12.9029H12.8835H12.8642H12.8448H12.8255H12.8062H12.787H12.7677H12.7485H12.7293H12.7101H12.691H12.6719H12.6528H12.6337H12.6147H12.5957H12.5767H12.5577H12.5388H12.5199H12.501H12.4821H12.4633H12.4445H12.4257H12.4069H12.3882H12.3694H12.3508H12.3321H12.3134H12.2948H12.2762H12.2577H12.2391H12.2206H12.2021H12.1836H12.1652H12.1468H12.1284H12.11H12.0917H12.0733H12.055H12.0368H12.0185H12.0003H11.9821H11.9639H11.9457H11.9276H11.9095H11.8914H11.8734H11.8553H11.8373H11.8193H11.8014H11.7834H11.7655H11.7476H11.7298H11.7119H11.6941H11.6763H11.6585H11.6408H11.6231H11.6054H11.5877H11.5701H11.5524H11.5348H11.5172H11.4997H11.4822H11.4646H11.4472H11.4297H11.4123H11.3948H11.3774H11.3601H11.3427H11.3254H11.3081H11.2908H11.2736H11.2564H11.2392H11.222H11.2048H11.1877H11.1706H11.1535H11.1364H11.1194H11.1024H11.0854H11.0684H11.0514H11.0345H11.0176H11.0007H10.9839H10.967H10.9502H10.9334H10.9167H10.8999H10.8832H10.8665H10.8498H10.8332H10.8166H10.7999H10.7834H10.7668H10.7503H10.7338H10.7173H10.7008H10.6843H10.6679H10.6515H10.6351H10.6188H10.6024H10.5861H10.5698H10.5536H10.5373H10.5211H10.5049H10.4887H10.4726H10.4564H10.4403H10.4242H10.4082H10.3921H10.3761H10.3601H10.3441H10.3282H10.3122H10.2963H10.2804H10.2645H10.2487H10.2329H10.2171H10.2013H10.1855H10.1698H10.1541H10.1384H10.1227H10.1071H10.0914H10.0758H10.0602H10.0447H10.0291H10.0136H9.99812H9.98264H9.96718H9.95175H9.93634H9.92095H9.90558H9.89023H9.8749H9.8596H9.84431H9.82905H9.81381H9.79859H9.78339H9.76822H9.75306H9.73793H9.72281H9.70772H9.69265H9.6776H9.66257H9.64756H9.63258H9.61761H9.60267H9.58774H9.57284H9.55796H9.5431H9.52826H9.51344H9.49864H9.48386H9.46911H9.45437H9.43966H9.42496H9.41029H9.39564H9.38101H9.3664H9.35181H9.33724H9.32269H9.30816H9.29365H9.27916H9.2647H9.25025H9.23582H9.22142H9.20703H9.19267H9.17832H9.164H9.14969H9.13541H9.12115H9.1069H9.09268H9.07848H9.0643H9.05014H9.03599H9.02187H9.00777H8.99369H8.97963H8.96559H8.95156H8.93756H8.92358H8.90962H8.89568H8.88176H8.86786H8.85397H8.84011H8.82627H8.81245H8.79865H8.78486H8.7711H8.75736H8.74363H8.72993H8.71624H8.70258H8.68893H8.67531H8.6617H8.64812H8.63455H8.621H8.60747H8.59396H8.58047H8.56701H8.55355H8.54012H8.52671H8.51332H8.49995H8.48659H8.47326H8.45994H8.44665H8.43337H8.42011H8.40687H8.39365H8.38045H8.36727H8.35411H8.34096H8.32784H8.31473H8.30165H8.28858H8.27553H8.2625H8.24949H8.2365H8.22353H8.21057H8.19763H8.18472H8.17182H8.15894H8.14608H8.13324H8.12041H8.10761H8.09482H8.08205H8.0693H8.05657H8.04386H8.03117H8.01849H8.00584H7.9932H7.98058H7.96797H7.95539H7.94283H7.93028H7.91775H7.90524H7.89275H7.88027H7.86782H7.85538H7.84296H7.83056H7.81818H7.80581H7.79347H7.78114H7.76883H7.75653H7.74426H7.732H7.71976H7.70754H7.69534H7.68315H7.67098H7.65883H7.6467H7.63459H7.62249H7.61041H7.59835H7.58631H7.57428H7.56227H7.55028H7.53831H7.52636H7.51442H7.5025H7.49059H7.47871H7.46684H7.45499H7.44316H7.43134H7.41954H7.40776H7.396H7.38425H7.37252H7.36081H7.34912H7.33744H7.32578H7.31414H7.30251H7.2909H7.27931H7.26774H7.25618H7.24464H7.23311H7.22161H7.21012H7.19865H7.18719H7.17575H7.16433H7.15292H7.14154H7.13016H7.11881H7.10747H7.09615H7.08485H7.07356H7.06229H7.05103H7.03979H7.02857H7.01737H7.00618H6.99501H6.98385H6.97271H6.96159H6.95049H6.9394H6.92832H6.91727H6.90623H6.8952H6.8842H6.87321H6.86223H6.85127H6.84033H6.8294H6.81849H6.8076H6.79672H6.78586H6.77501H6.76418H6.75337H6.74257H6.73179H6.72103H6.71028H6.69954H6.68883H6.67812H6.66744H6.65677H6.64611H6.63547H6.62485H6.61424H6.60365H6.59308H6.58252H6.57197H6.56145H6.55093H6.54044H6.52995H6.51949H6.50904H6.4986H6.48818H6.47778H6.46739H6.45702H6.44666H6.43631H6.42599H6.41568H6.40538H6.3951H6.38483H6.37458H6.36435H6.35412H6.34392H6.33373H6.32355H6.31339H6.30325H6.29312H6.28301H6.27291H6.26282H6.25275H6.2427H6.23266H6.22263H6.21262H6.20263H6.19265H6.18268H6.17273H6.16279H6.15287H6.14297H6.13307H6.1232H6.11334H6.10349H6.09365H6.08384H6.07403H6.06424H6.05447H6.04471H6.03496H6.02523H6.01551H6.00581H5.99612H5.98645H5.97679H5.96714H5.95751H5.94789H5.93829H5.9287H5.91913H5.90957H5.90002H5.89049H5.88098H5.87147H5.86198H5.85251H5.84305H5.8336H5.77354L5.71479 14.3983C5.71479 14.3983 5.70188 14.4006 5.6738 14.3997C5.6449 14.3987 5.60469 14.3945 5.55327 14.3837C5.44995 14.3621 5.31284 14.3166 5.1489 14.2332C4.82172 14.0667 4.40527 13.7581 3.96431 13.2319C3.14651 12.256 2.25424 10.5416 1.71289 7.66636H5.16693H14.8336H18.3028C18.2135 8.17729 18.088 8.74997 17.9227 9.33739L19.0778 9.66241C19.3376 8.73926 19.5062 7.84887 19.5955 7.14152L19.6808 6.46636H19.0003H15.1642L11.5075 0.679394L11.3309 0.399902H11.0003H9.00027ZM13.7447 6.46636H6.25582L9.33088 1.5999H10.6697L13.7447 6.46636ZM16.1503 15.4999V13.3499H14.0003V12.1499H16.1503V9.9999H17.3503V12.1499H19.5003V13.3499H17.3503V15.4999H16.1503Z" fill="white"/>
</svg>
