<svg width="51" height="18" viewBox="0 0 51 18" fill="none" xmlns="http://www.w3.org/2000/svg">
<path fill-rule="evenodd" clip-rule="evenodd" d="M37.2352 1.6689L36.647 5.187C34.883 4.18127 30.8683 3.94331 30.8679 5.7957C30.8679 6.5316 31.7762 7.0377 32.8711 7.64769C34.5314 8.57279 36.6207 9.73685 36.6207 12.3038C36.6207 16.4056 32.3769 17.9127 29.5639 17.9127C26.7516 17.9127 24.911 16.9876 24.911 16.9876L25.5238 13.3091C27.2116 14.711 32.3257 15.1094 32.3257 12.8862C32.3257 11.9521 31.3189 11.4011 30.1515 10.7623C28.5408 9.88086 26.6241 8.83203 26.6241 6.37811C26.6241 1.87969 31.482 0.95459 33.5277 0.95459C35.42 0.95459 37.2352 1.6689 37.2352 1.6689ZM50.9892 17.63H47.2041L46.7213 15.1966H41.481L40.6216 17.63H36.3245L42.4724 2.46778C42.4724 2.46778 42.8451 1.24688 44.3754 1.24688H47.689L50.9892 17.63ZM14.7809 1.24732L10.851 12.5155L10.386 10.089L10.3864 10.0899L8.99932 2.7224C8.99932 2.7224 8.8316 1.24732 7.04388 1.24732H0.546938L0.470703 1.52472C0.470703 1.52472 2.45748 1.95243 4.78266 3.39727L8.36402 17.6305H12.659L19.2174 1.24732H14.7809ZM22.3711 17.6301H18.2488L20.8252 1.24732H24.9478L22.3711 17.6301ZM42.6681 11.8349L44.834 5.7041L46.0525 11.8349H42.6681Z" fill="#2566AF"/>
<path d="M10.3864 10.0894L8.99931 2.7219C8.99931 2.7219 8.8316 1.24683 7.04388 1.24683H0.546938L0.470703 1.52422C0.470703 1.52422 3.59339 2.19384 6.58858 4.7027C9.45249 7.10068 10.3864 10.0894 10.3864 10.0894Z" fill="#E6A540"/>
</svg>
