<svg width="32" height="32" viewBox="0 0 32 32" fill="none" xmlns="http://www.w3.org/2000/svg">
<path fill-rule="evenodd" clip-rule="evenodd" d="M32 16C32 24.8366 24.8366 32 16 32C7.16344 32 0 24.8366 0 16C0 7.16344 7.16344 0 16 0C24.8366 0 32 7.16344 32 16ZM18.8125 16C18.8125 17.5532 17.5532 18.8125 16 18.8125C14.4468 18.8125 13.1875 17.5532 13.1875 16C13.1875 14.4468 14.4468 13.1875 16 13.1875C17.5532 13.1875 18.8125 14.4468 18.8125 16ZM11.25 7.5H20.75C22.8179 7.5 24.5 9.18213 24.5 11.25V20.75C24.5 22.8179 22.8179 24.5 20.75 24.5H11.25C9.18213 24.5 7.5 22.8179 7.5 20.75V11.25C7.5 9.18213 9.18213 7.5 11.25 7.5ZM11.3125 16C11.3125 18.5847 13.4153 20.6875 16 20.6875C18.5847 20.6875 20.6875 18.5847 20.6875 16C20.6875 13.4153 18.5847 11.3125 16 11.3125C13.4153 11.3125 11.3125 13.4153 11.3125 16ZM20.4375 10.625C20.4375 11.1428 20.8572 11.5625 21.375 11.5625C21.8928 11.5625 22.3125 11.1428 22.3125 10.625C22.3125 10.1072 21.8928 9.6875 21.375 9.6875C20.8572 9.6875 20.4375 10.1072 20.4375 10.625Z" fill="url(#paint0_linear)"/>
<defs>
<linearGradient id="paint0_linear" x1="22.766" y1="-32.8649" x2="-5.01004" y2="-26.7105" gradientUnits="userSpaceOnUse">
<stop stop-color="#35407A"/>
<stop offset="1" stop-color="#365093"/>
</linearGradient>
</defs>
</svg>
