<svg width="25" height="25" viewBox="0 0 25 25" fill="none" xmlns="http://www.w3.org/2000/svg">
<g clip-path="url(#clip0)">
<path d="M24.12 14.4718C24.8658 8.19372 23.7617 4.23018 21.77 2.43747L21.771 2.43642C18.5565 -0.625036 7.70021 -1.07816 3.85437 2.57392C2.12729 4.36038 1.51895 6.98226 1.45229 10.2281C1.38562 13.475 1.30645 19.5573 6.97416 21.2073H6.97937L6.97416 23.7271C6.97416 23.7271 6.93562 24.7479 7.58771 24.9531C8.33354 25.1948 8.67104 24.7208 10.9908 21.95C14.87 22.2864 17.8492 21.5156 18.1877 21.4031C18.971 21.1406 23.4033 20.5541 24.12 14.4718ZM11.3731 20.1771C11.3731 20.1771 8.91791 23.2385 8.15437 24.0333C7.90437 24.2916 7.63041 24.2677 7.63458 23.7552C7.63458 23.4187 7.65333 19.5719 7.65333 19.5719C2.84812 18.1948 3.13145 13.0156 3.18354 10.3062C3.23562 7.5958 3.73145 5.37601 5.19396 3.88122C8.56791 0.717673 18.0856 1.42497 20.5106 3.70413C23.4752 6.33226 22.42 13.7573 22.4262 14.0104C21.8169 19.0875 18.2252 19.4094 17.5648 19.6291C17.2825 19.7229 14.6627 20.3969 11.3731 20.1771Z" fill="black"/>
<path d="M12.7314 4.47607C12.3304 4.47607 12.3304 5.10107 12.7314 5.10628C15.8429 5.13024 18.4054 7.29899 18.4335 11.2771C18.4335 11.6969 19.0481 11.6917 19.0429 11.2719H19.0419C19.0085 6.98545 16.2106 4.50003 12.7314 4.47607Z" fill="black"/>
<path d="M16.8238 10.6178C16.8145 11.0323 17.428 11.0521 17.4332 10.6323C17.4843 8.26879 16.027 6.32191 13.2884 6.1167C12.8874 6.08754 12.8457 6.71775 13.2457 6.74691C15.6207 6.92712 16.8717 8.54796 16.8238 10.6178Z" fill="black"/>
<path d="M16.1676 13.3062C15.653 13.0083 15.1291 13.1937 14.9124 13.4864L14.4593 14.0729C14.2291 14.3708 13.7989 14.3312 13.7989 14.3312C10.6593 13.501 9.81972 10.2156 9.81972 10.2156C9.81972 10.2156 9.78118 9.77078 10.0687 9.53224L10.6353 9.06349C10.9187 8.83849 11.0978 8.29682 10.8093 7.76453C10.0385 6.37182 9.52077 5.89161 9.25723 5.52286C8.98014 5.17599 8.56348 5.09786 8.13014 5.33224H8.12077C7.21973 5.85932 6.23327 6.84578 6.5489 7.8614C7.08744 8.93224 8.07702 12.3458 11.2312 14.9249C12.7135 16.1447 15.0593 17.3947 16.0551 17.6833L16.0645 17.6979C17.0458 18.0249 17.9999 16.9999 18.5093 16.0718V16.0645C18.7353 15.6156 18.6603 15.1906 18.3301 14.9124C17.7447 14.3416 16.8614 13.7114 16.1676 13.3062Z" fill="black"/>
<path d="M13.7174 8.44167C14.7185 8.5 15.2039 9.02292 15.256 10.0969C15.2747 10.5167 15.8841 10.4875 15.8653 10.0677C15.7987 8.66563 15.0674 7.88437 13.7507 7.81146C13.3497 7.7875 13.3122 8.41771 13.7174 8.44167Z" fill="black"/>
</g>
<defs>
<clipPath id="clip0">
<rect width="25" height="25" fill="white"/>
</clipPath>
</defs>
</svg>
