<svg width="40" height="26" viewBox="0 0 40 26" fill="none" xmlns="http://www.w3.org/2000/svg">
<path fill-rule="evenodd" clip-rule="evenodd" d="M15.3983 13.185C15.3983 9.26065 17.2205 5.7667 20.0577 3.5056C17.9656 1.83827 15.3228 0.840088 12.4466 0.840088C5.66992 0.840088 0.17627 6.36713 0.17627 13.185C0.17627 20.0028 5.66992 25.5299 12.4466 25.5299C15.3228 25.5299 17.9656 24.5317 20.0577 22.8643C17.2205 20.6032 15.3983 17.1093 15.3983 13.185Z" fill="#EB001B"/>
<path fill-rule="evenodd" clip-rule="evenodd" d="M15.3979 13.185C15.3979 17.1093 17.2201 20.6033 20.0573 22.8644C22.8943 20.6033 24.7165 17.1093 24.7165 13.185C24.7165 9.26067 22.8943 5.76672 20.0573 3.50562C17.2201 5.76672 15.3979 9.26067 15.3979 13.185Z" fill="#FF5E00"/>
<path fill-rule="evenodd" clip-rule="evenodd" d="M27.6686 0.840088C24.7924 0.840088 22.1496 1.83827 20.0576 3.5056C22.8946 5.76686 24.7168 9.26065 24.7168 13.185C24.7168 17.1093 22.8946 20.6032 20.0576 22.8643C22.1496 24.5317 24.7924 25.5299 27.6686 25.5299C34.4452 25.5299 39.9389 20.0028 39.9389 13.185C39.9389 6.36713 34.4452 0.840088 27.6686 0.840088Z" fill="#F79E1C"/>
</svg>
