<svg width="16" height="16" viewBox="0 0 16 16" fill="none" xmlns="http://www.w3.org/2000/svg">
<path d="M11.2002 0.665929C10.963 0.562241 10.6867 0.670585 10.583 0.907773C10.4794 1.14496 10.5876 1.42133 10.8249 1.52499C13.3989 2.6498 15.0622 5.1913 15.0623 7.99983C15.0623 10.8085 13.3989 13.3501 10.8246 14.4749C10.5874 14.5785 10.4791 14.8549 10.5828 15.0921C10.6597 15.2683 10.8319 15.3733 11.0126 15.3733C11.0752 15.3733 11.1389 15.3607 11.2 15.334C14.1157 14.06 15.9998 11.1812 15.9998 7.9998C15.9997 4.81865 14.1157 1.93993 11.2002 0.665929Z" fill="black"/>
<path d="M11.3254 4.28295C11.1325 4.11029 10.8361 4.12667 10.6635 4.31954C10.4908 4.51245 10.5072 4.80876 10.7 4.98145C11.5579 5.74942 12.0499 6.84963 12.0499 8.00001C12.0499 9.15035 11.5579 10.2506 10.7 11.0186C10.5072 11.1912 10.4908 11.4876 10.6635 11.6805C10.756 11.7839 10.8842 11.8366 11.0129 11.8366C11.1242 11.8366 11.2359 11.7972 11.3254 11.7171C12.3816 10.7715 12.9874 9.41666 12.9874 7.99998C12.9874 6.58332 12.3816 5.22848 11.3254 4.28295Z" fill="black"/>
<path d="M8.21187 1.80782C8.05431 1.72797 7.86525 1.74351 7.72281 1.84794L4.08094 4.5186H0.46875C0.209875 4.5186 0 4.72847 0 4.98735V11.0124C0 11.2713 0.209875 11.4811 0.46875 11.4811H4.08091L7.72278 14.1518C7.80475 14.212 7.90209 14.2426 8.00003 14.2426C8.07231 14.2426 8.14497 14.2259 8.21187 14.192C8.36944 14.1121 8.46875 13.9505 8.46875 13.7738V2.22588C8.46875 2.04926 8.36944 1.8876 8.21187 1.80782ZM7.53122 12.8488L4.51156 10.6343C4.43116 10.5754 4.33406 10.5436 4.23434 10.5436H0.9375V5.4561H4.23434C4.33403 5.4561 4.43116 5.42429 4.51153 5.36538L7.53122 3.15097V12.8488Z" fill="black"/>
</svg>
