<svg width="12" height="12" viewBox="0 0 12 12" fill="none" xmlns="http://www.w3.org/2000/svg">
<g opacity="1">
<path fill-rule="evenodd" clip-rule="evenodd" d="M0.649902 6.00002C0.649902 3.04672 3.0466 0.650024 5.9999 0.650024C8.9532 0.650024 11.3499 3.04672 11.3499 6.00002C11.3499 8.95332 8.9532 11.35 5.9999 11.35C3.0466 11.35 0.649902 8.95332 0.649902 6.00002ZM5.9999 1.35002C3.4332 1.35002 1.3499 3.43332 1.3499 6.00002C1.3499 8.56672 3.4332 10.65 5.9999 10.65C8.5666 10.65 10.6499 8.56672 10.6499 6.00002C10.6499 3.43332 8.5666 1.35002 5.9999 1.35002ZM6.4999 8.50002H5.4999V5.50002H6.4999V8.50002ZM6.4999 4.50002H5.4999V3.50002H6.4999V4.50002Z" fill="#000"/>
</g>
</svg>
