<svg width="15" height="18" viewBox="0 0 15 18" fill="none" xmlns="http://www.w3.org/2000/svg">
<path fill-rule="evenodd" clip-rule="evenodd" d="M3.39623 0H2.64623V0.75V9.0566H0V10.5566H2.64623V13.0189H0V14.5189H2.64623V17.7311H4.14623V14.5189H7.92453V13.0189H4.14623V10.5566H9.0566C10.0092 10.5566 11.4332 10.3081 12.6449 9.53265C13.8969 8.73133 14.9009 7.37332 14.9009 5.2783C14.9009 3.18328 13.8969 1.82528 12.6449 1.02396C11.4332 0.248521 10.0092 0 9.0566 0H3.39623ZM9.0566 9.0566H4.14623V1.5H9.0566C9.80211 1.5 10.9253 1.70431 11.8363 2.28736C12.7069 2.84454 13.4009 3.75068 13.4009 5.2783C13.4009 6.80592 12.7069 7.71207 11.8363 8.26924C10.9253 8.8523 9.80211 9.0566 9.0566 9.0566Z" fill="black"/>
</svg>
