<svg width="64" height="21" viewBox="0 0 64 21" fill="none" xmlns="http://www.w3.org/2000/svg">
<path fill-rule="evenodd" clip-rule="evenodd" d="M40.4965 0.0256664L40.4966 0.025657C40.5283 0.0167401 40.56 0.00782416 40.5918 0H43.0109C43.2033 0.0362468 43.3961 0.0705505 43.589 0.104854L43.589 0.10487L43.5891 0.104874C44.0335 0.183939 44.478 0.263007 44.917 0.365869C45.3143 0.458904 45.7057 0.577225 46.1113 0.699818C46.2923 0.754519 46.4761 0.810071 46.6645 0.864607L45.7625 5.14747C45.5116 5.07282 45.2642 4.99461 45.0185 4.91696L45.0185 4.91695L45.0184 4.91691C44.4752 4.74523 43.9405 4.57622 43.3956 4.45411C42.3131 4.21151 41.204 4.11906 40.1211 4.42545C39.6808 4.55004 39.2353 4.78916 38.8887 5.09075C38.2942 5.60795 38.2863 6.3524 38.8541 6.89539C39.2456 7.26977 39.7096 7.57712 40.1734 7.86025C40.5891 8.11408 41.0131 8.35489 41.4369 8.59565C42.0878 8.96535 42.7384 9.33493 43.3588 9.75135C44.5653 10.561 45.4454 11.6744 45.6302 13.1797C45.957 15.842 44.9874 17.9391 42.7849 19.4226C41.4 20.3556 39.8328 20.7723 38.1996 20.9266C37.6836 20.9754 37.1697 20.9998 36.6585 21H36.6484C34.9039 20.9996 33.1881 20.7171 31.5056 20.1559C31.3745 20.1122 31.2464 20.0587 31.1186 20.0054L31.0749 19.9872C31.0471 19.9756 31.0217 19.9583 30.9891 19.936C30.972 19.9243 30.9529 19.9113 30.9304 19.897L31.8632 15.4611C31.9814 15.5135 32.0974 15.566 32.212 15.6179L32.2124 15.618L32.2124 15.6181C32.4577 15.7291 32.6969 15.8373 32.9396 15.9366C34.6417 16.633 36.3996 16.9516 38.2214 16.605C38.6954 16.5148 39.1788 16.3023 39.5805 16.0288C40.4523 15.4353 40.536 14.3202 39.7421 13.6231C39.3302 13.2615 38.8526 12.9744 38.3771 12.6886L38.377 12.6885C38.2503 12.6124 38.1237 12.5363 37.9986 12.459C37.6694 12.2553 37.3329 12.0623 36.9966 11.8694C36.3842 11.5182 35.7722 11.1672 35.205 10.7523C34.0786 9.92835 33.2631 8.82979 33.1083 7.36955C32.8768 5.18321 33.6757 3.40794 35.3285 2.02853C36.7665 0.828272 38.4739 0.295717 40.2929 0.0720706C40.3617 0.0635893 40.4291 0.0446263 40.4965 0.0256664ZM53.1048 2.03313C53.5913 0.854937 54.3206 0.361595 55.5751 0.361475H59.8051C59.8501 0.57538 59.8953 0.788286 59.9404 1.00056L59.9412 1.00443L59.9417 1.00689L59.942 1.00812C60.0361 1.45139 60.1296 1.89192 60.2202 2.33304C60.5998 4.18001 60.9792 6.02705 61.3585 7.87409L61.3602 7.88258C62.0844 11.4087 62.8085 14.9349 63.535 18.4605C63.6322 18.9317 63.7412 19.4003 63.8502 19.8689C63.9005 20.0851 63.9509 20.3014 64 20.5179V20.6624H59.1821C59.1313 20.4145 59.0794 20.1681 59.0278 19.9227L59.0277 19.9226L59.0277 19.9225C58.9001 19.3164 58.7737 18.7161 58.6674 18.1119C58.6054 17.7596 58.4945 17.6232 58.1074 17.6281C56.1756 17.6535 54.2432 17.6473 52.311 17.6317C52.0186 17.6293 51.9023 17.7274 51.8133 17.9979C51.5471 18.8066 51.2561 19.6072 50.9583 20.4045C50.9179 20.5127 50.7838 20.6613 50.6922 20.6621C49.2482 20.6748 47.804 20.6743 46.3312 20.6737L45.4173 20.6735C45.5202 20.4218 45.6214 20.1736 45.7216 19.9281L45.7222 19.9264L45.7232 19.9241C45.9402 19.3919 46.1525 18.8716 46.3669 18.3521C48.0839 14.1923 49.8016 10.0326 51.5193 5.87292L51.5304 5.84599L53.1048 2.03313ZM56.1677 6.01624L56.1056 6.00389L53.4478 13.4483H57.6943L56.1677 6.01624ZM18.698 0.672622C17.1018 4.79633 15.4974 8.91695 13.893 13.0375L13.6028 13.7828C13.5819 13.8366 13.5537 13.8874 13.5172 13.9534L13.5171 13.9534C13.4972 13.9894 13.4749 14.0297 13.4499 14.0775C13.4337 13.9965 13.4189 13.9239 13.4053 13.8568L13.4053 13.8567C13.3805 13.7351 13.3594 13.6313 13.34 13.5272C13.136 12.4284 12.9325 11.3294 12.729 10.2305L12.7288 10.2299L12.7288 10.2298C12.2475 7.63077 11.7662 5.03175 11.2776 2.43409C11.0319 1.12843 10.0941 0.362155 8.79506 0.361795C6.81695 0.361102 4.83885 0.361223 2.86079 0.361343L0.578441 0.361435C0.00767785 0.361435 0.00767633 0.361555 0 0.970733V0.970738L0.0625556 0.986799L0.062558 0.986799C0.107195 0.998323 0.153045 1.01016 0.199112 1.02122C1.73272 1.39105 3.2361 1.8459 4.68445 2.49357C5.58801 2.89758 6.06973 3.55593 6.31041 4.51982C7.13188 7.81007 7.96793 11.0966 8.80398 14.3831L8.8041 14.3836C9.30301 16.3448 9.80192 18.306 10.2977 20.268C10.3741 20.5703 10.4823 20.6885 10.8142 20.6838C12.3788 20.6618 13.9442 20.667 15.5091 20.6802C15.7952 20.6827 15.9391 20.6075 16.0567 20.321C18.052 15.4647 20.0559 10.6119 22.0598 5.75923L22.0601 5.75869L23.4886 2.29895C23.662 1.87904 23.8337 1.4585 24.0093 1.02858L24.0101 1.02656C24.0973 0.813038 24.1855 0.597204 24.2753 0.377984C24.2254 0.37564 24.1805 0.373042 24.139 0.370635C24.0594 0.366023 23.9919 0.362114 23.9245 0.362035C23.4841 0.361915 23.0437 0.362155 22.6036 0.362515L22.6035 0.362515C21.4549 0.363354 20.3066 0.364193 19.1581 0.35496H19.1489C18.9015 0.35496 18.7893 0.436864 18.698 0.672622ZM22.201 20.6739L26.4769 0.383089H31.6665C31.6 0.70004 31.5339 1.01513 31.4681 1.32892C31.3203 2.03423 31.1738 2.73299 31.0266 3.43164C30.7867 4.57103 30.5466 5.7104 30.3064 6.84977C29.37 11.2928 28.4335 15.7359 27.508 20.1813C27.4273 20.5693 27.2919 20.6927 26.8952 20.6849C25.8624 20.6646 24.8291 20.668 23.7959 20.6714C23.4063 20.6726 23.0168 20.6739 22.6272 20.6739H22.201Z" fill="#969696"/>
</svg>
