<svg width="20" height="23" viewBox="0 0 20 23" fill="none" xmlns="http://www.w3.org/2000/svg">
<path d="M19 21.295L18.25 21.295V21.295H19ZM10.0001 0.860962C6.90597 0.860962 4.57387 3.2616 4.57387 6.38098H6.07387C6.07387 4.06179 7.76236 2.36096 10.0001 2.36096V0.860962ZM15.4263 6.38121C15.4263 3.26163 13.0943 0.860962 10.0001 0.860962V2.36096C12.2378 2.36096 13.9263 4.06176 13.9263 6.38121H15.4263ZM10.0001 12.2067C13.0495 12.2067 15.4263 9.53509 15.4263 6.38121H13.9263C13.9263 8.82472 12.1077 10.7067 10.0001 10.7067V12.2067ZM4.57387 6.38098C4.57387 9.53506 6.95072 12.2067 10.0001 12.2067V10.7067C7.89251 10.7067 6.07387 8.82474 6.07387 6.38098H4.57387ZM10 12.814C6.99162 12.814 4.54202 13.5246 2.83491 14.991C1.10968 16.473 0.25 18.6341 0.25 21.295H1.75C1.75 18.9705 2.48846 17.266 3.81232 16.1289C5.15428 14.9761 7.2047 14.314 10 14.314V12.814ZM19.75 21.2951C19.75 18.6343 18.8903 16.4731 17.1651 14.9911C15.458 13.5247 13.0084 12.814 10 12.814V14.314C12.7953 14.314 14.8457 14.9762 16.1877 16.1289C17.5116 17.2662 18.25 18.9706 18.25 21.295L19.75 21.2951ZM18.295 22.75C19.0986 22.75 19.75 22.0986 19.75 21.295H18.25C18.25 21.2702 18.2702 21.25 18.295 21.25V22.75ZM1.70496 22.75H18.295V21.25H1.70496V22.75ZM0.25 21.295C0.25 22.0986 0.901368 22.75 1.70496 22.75V21.25C1.7298 21.25 1.75 21.2702 1.75 21.295H0.25Z" fill="black"/>
</svg>
