<svg width="18" height="18" viewBox="0 0 18 18" fill="none" xmlns="http://www.w3.org/2000/svg">
<path opacity="0.2" d="M8.10494 14H9.89506V6.83918H8.10494V14ZM10 4.9861C10 4.69932 9.91152 4.46327 9.73457 4.27796C9.5535 4.09265 9.30864 4 9 4C8.69547 4 8.45267 4.09265 8.2716 4.27796C8.09053 4.46327 8 4.69932 8 4.9861C8 5.2773 8.09259 5.51555 8.27778 5.70086C8.45885 5.88617 8.69959 5.97882 9 5.97882C9.30041 5.97882 9.54321 5.88617 9.7284 5.70086C9.90947 5.51555 10 5.2773 10 4.9861Z" fill="black"/>
<circle opacity="0.2" cx="9" cy="9" r="8.5" stroke="black"/>
</svg>
