<svg width="22" height="20" viewBox="0 0 22 20" fill="none" xmlns="http://www.w3.org/2000/svg">
<path d="M20.4409 1.61464C19.4013 0.538062 17.9651 0 16.1316 0C15.6242 0 15.1063 0.0933103 14.5785 0.27984C14.0505 0.466506 13.5594 0.718343 13.1055 1.03517C12.6511 1.3519 12.2606 1.64935 11.933 1.92704C11.6057 2.20483 11.2946 2.50004 11 2.81244C10.7053 2.50004 10.3943 2.20483 10.067 1.92704C9.73951 1.64935 9.34881 1.35209 8.89447 1.03517C8.44022 0.718206 7.94911 0.466551 7.42124 0.27984C6.89341 0.0933559 6.37565 0 5.86824 0C4.03484 0 2.59855 0.538199 1.55915 1.61464C0.519745 2.69099 0 4.18396 0 6.09367C0 6.67529 0.0963205 7.27446 0.288575 7.89046C0.480829 8.50679 0.699914 9.03203 0.945403 9.46597C1.19085 9.89987 1.46919 10.323 1.78021 10.7354C2.09123 11.1477 2.31853 11.4319 2.46159 11.5881C2.60478 11.7444 2.71736 11.8573 2.79919 11.9268L10.4598 19.7654C10.6072 19.9216 10.7872 20 11 20C11.2127 20 11.3929 19.9216 11.5402 19.7654L19.1886 11.9526C21.0629 9.96509 22 8.01196 22 6.09349C22 4.18364 21.4803 2.69081 20.4409 1.61464Z" fill="black"/>
</svg>
