<?xml version="1.0" encoding="UTF-8" standalone="no"?>
<svg
   xmlns:dc="http://purl.org/dc/elements/1.1/"
   xmlns:cc="http://creativecommons.org/ns#"
   xmlns:rdf="http://www.w3.org/1999/02/22-rdf-syntax-ns#"
   xmlns:svg="http://www.w3.org/2000/svg"
   xmlns="http://www.w3.org/2000/svg"
   xmlns:sodipodi="http://sodipodi.sourceforge.net/DTD/sodipodi-0.dtd"
   xmlns:inkscape="http://www.inkscape.org/namespaces/inkscape"
   width="50mm"
   height="10mm"
   viewBox="0 0 50 10"
   version="1.1"
   id="svg1280"
   inkscape:version="1.0.2 (e86c870879, 2021-01-15)"
   sodipodi:docname="kleisterlogo.svg">
  <defs
     id="defs1274" />
  <sodipodi:namedview
     id="base"
     pagecolor="#ffffff"
     bordercolor="#666666"
     borderopacity="1.0"
     inkscape:pageopacity="0.0"
     inkscape:pageshadow="2"
     inkscape:zoom="3.959798"
     inkscape:cx="74.75481"
     inkscape:cy="-17.854667"
     inkscape:document-units="mm"
     inkscape:current-layer="layer1"
     inkscape:document-rotation="0"
     showgrid="false"
     inkscape:window-width="1920"
     inkscape:window-height="1137"
     inkscape:window-x="1272"
     inkscape:window-y="-8"
     inkscape:window-maximized="1" />
  <metadata
     id="metadata1277">
    <rdf:RDF>
      <cc:Work
         rdf:about="">
        <dc:format>image/svg+xml</dc:format>
        <dc:type
           rdf:resource="http://purl.org/dc/dcmitype/StillImage" />
        <dc:title></dc:title>
      </cc:Work>
    </rdf:RDF>
  </metadata>
  <g
     inkscape:label="Слой 1"
     inkscape:groupmode="layer"
     id="layer1">
    <path
       style="fill:#000000;stroke-width:0.0378676"
       d="m 12.921716,9.9287247 c -0.0322,-0.02362 -0.0429,-0.2709292 -0.0322,-1.1070085 V 7.7450854 h 0.113779 c 0.0966,0 0.115929,0.0161 0.125598,0.1041209 0.0107,0.093389 0.0859,0.1543564 0.0859,0.070849 0,-0.071919 0.341346,-0.193536 0.538854,-0.192677 0.484105,0 0.824381,0.3370515 0.824381,0.8107476 0,0.382456 -0.144918,0.6093756 -0.489485,0.76824 -0.258687,0.1193637 -0.499134,0.1051939 -0.721322,-0.04079 L 13.214763,9.1646707 v 0.379236 c 0,0.2085638 -0.0107,0.3806321 -0.0322,0.382349 -0.0107,0 -0.0751,0.01073 -0.122369,0.01825 -0.0537,0.01073 -0.115929,0 -0.142768,-0.01503 z m 1.025109,-0.9432062 c 0.199658,-0.1030469 0.270507,-0.2228397 0.267287,-0.4556632 0,-0.1833381 -0.0215,-0.2138228 -0.145988,-0.3323276 -0.124519,-0.1138888 -0.167449,-0.1305266 -0.339197,-0.1305266 -0.168528,0 -0.217908,0.01825 -0.339196,0.1230127 -0.262988,0.2285296 -0.217908,0.6247255 0.0859,0.7871318 0.169598,0.090169 0.304847,0.092309 0.468005,0.01074 z m 8.745079,0.9497541 c -0.0322,-0.01503 -0.0429,-0.2735051 -0.0429,-1.1140934 V 7.7261926 h 0.0859 c 0.0966,0 0.159939,0.055819 0.180329,0.1676673 0.0107,0.068699 0.0215,0.069769 0.0751,0.01073 0.107349,-0.1041209 0.315587,-0.1757172 0.517384,-0.1757172 0.916701,0 1.158218,1.2188583 0.315587,1.5913314 -0.230787,0.101974 -0.443315,0.095529 -0.646193,-0.0204 -0.0859,-0.051519 -0.171748,-0.094459 -0.179258,-0.094459 0,0 -0.0107,0.1618704 -0.0107,0.3597003 0,0.3294296 0,0.3598073 -0.0751,0.3598073 -0.0429,0 -0.0966,0.01073 -0.123439,0.0161 -0.0322,0.01073 -0.0751,0.01073 -0.0966,0 z m 1.045509,-0.9751938 c 0.140609,-0.088019 0.270497,-0.289606 0.270497,-0.4178787 0,-0.098749 -0.113779,-0.2971199 -0.222197,-0.3886819 -0.0751,-0.061179 -0.150279,-0.083729 -0.288747,-0.084799 -0.311287,0 -0.507725,0.1750731 -0.509875,0.4597422 0,0.2074908 0.0537,0.3200906 0.214688,0.4247486 0.183548,0.1202217 0.353146,0.1224767 0.535634,0.01073 z M 10.172714,9.3655066 C 10.014926,9.324717 9.7884382,9.1751905 9.6789493,9.038545 9.5716004,8.9072673 9.5598005,8.8630428 9.5490607,8.5841707 c -0.0107,-0.2970129 0,-0.3162277 0.1127088,-0.4982778 0.1674582,-0.2505344 0.3789165,-0.3563723 0.7138225,-0.3573383 0.291967,-8.59e-4 0.499135,0.082649 0.659073,0.2633073 0.0966,0.1041209 0.112709,0.1669152 0.127739,0.378592 0.0215,0.3065668 0.0644,0.28864 -0.702013,0.2801601 -0.5259743,-0.01073 -0.5388542,0 -0.5388542,0.074069 0,0.098749 0.0215,0.1353566 0.1653082,0.2425905 0.136319,0.1041209 0.442245,0.1133518 0.703083,0.02039 0.174968,-0.062259 0.180328,-0.061179 0.260837,0.01932 0.0966,0.094459 0.107339,0.1580054 0.0322,0.1580054 -0.0322,0 -0.0644,0.01503 -0.0644,0.0322 0,0.01717 -0.119148,0.068699 -0.249037,0.1135668 -0.223268,0.076209 -0.431506,0.095529 -0.591444,0.05474 z m 0.625804,-1.0523721 c -0.0322,-0.189672 -0.284457,-0.3098938 -0.542075,-0.2583703 -0.129888,0.02576 -0.3349062,0.2053439 -0.3349062,0.293685 0,0.053669 0.053699,0.060109 0.4443952,0.051519 0.421846,-0.01073 0.444386,-0.01503 0.432586,-0.086949 z m 9.077835,1.0291863 C 19.490997,9.1984833 19.274169,8.9149953 19.274169,8.556476 c 0,-0.483679 0.355297,-0.8277064 0.857652,-0.8294244 0.359596,0 0.607553,0.1331026 0.747092,0.4043538 0.0751,0.1452325 0.0859,0.5011758 0.0107,0.5085827 -0.0322,0 -0.309147,0.01073 -0.629024,0.01717 -0.319876,0.01073 -0.589304,0.01932 -0.597884,0.02791 -0.0429,0.03972 0.0859,0.2242357 0.200728,0.295296 0.107339,0.063329 0.171739,0.075139 0.362807,0.062259 0.130958,-0.01073 0.290897,-0.03864 0.358526,-0.067629 0.108409,-0.046159 0.128809,-0.044009 0.198578,0.01825 0.120219,0.1088439 0.0966,0.1584354 -0.137399,0.2682453 -0.255467,0.1205437 -0.578564,0.1544633 -0.773932,0.080509 z m 0.696643,-0.958449 c 0.0322,-0.03435 -0.0429,-0.1742142 -0.139549,-0.2411955 -0.257617,-0.1861291 -0.660143,-0.094459 -0.725622,0.1654123 l -0.0215,0.099829 h 0.432586 c 0.238297,0 0.444395,-0.01073 0.457275,-0.02362 z M 33.540871,9.326756 C 33.196305,9.1986983 32.981627,8.9003974 32.983767,8.551324 c 0,-0.4966668 0.353156,-0.8262044 0.878051,-0.8242724 0.468005,0 0.784662,0.287889 0.786812,0.7090956 0,0.1631583 -0.0107,0.19944 -0.0644,0.2022299 -0.0322,0 -0.318806,0.01073 -0.626873,0.01503 -0.309147,0.01073 -0.569984,0.02039 -0.579644,0.03006 -0.0429,0.03972 0.0859,0.2236986 0.195358,0.2932559 0.151348,0.093389 0.426145,0.097679 0.669813,0.01073 0.169598,-0.061179 0.181408,-0.061179 0.255467,0.01073 0.119149,0.1083069 0.0966,0.1580053 -0.137398,0.2677082 -0.278008,0.1311706 -0.577494,0.1551074 -0.817932,0.065479 z m 0.767492,-0.9473922 c 0,-0.01503 -0.0322,-0.082649 -0.0751,-0.1490974 -0.140619,-0.2296026 -0.563544,-0.2534324 -0.741732,-0.04186 -0.170669,0.2030889 -0.143839,0.2194047 0.360666,0.2194047 0.250107,0 0.455125,-0.01288 0.455125,-0.02791 z m 4.743401,0.9437422 c -0.711673,-0.289177 -0.765342,-1.1745258 -0.0966,-1.5180172 0.189998,-0.097679 0.538854,-0.1051939 0.749242,-0.01825 0.332756,0.1393285 0.471225,0.3343675 0.498065,0.7027617 0.0322,0.4137997 -0.143839,0.6788249 -0.550664,0.8388703 -0.202878,0.079429 -0.398236,0.078359 -0.604334,-0.01073 z M 39.563778,8.9982924 C 40.046813,8.747114 39.901905,8.0670011 39.3652,8.0670011 c -0.211467,0 -0.357446,0.076209 -0.447615,0.2335745 -0.137398,0.2394776 -0.0537,0.5252196 0.195358,0.6701301 0.159938,0.092309 0.308077,0.1019739 0.450835,0.02791 z M 42.30956,9.323536 C 42.106692,9.240887 41.928504,9.0736456 41.839415,8.8810756 c -0.0537,-0.1180748 -0.0751,-0.2436645 -0.0751,-0.5699811 0,-0.3712931 0,-0.4399914 0.0966,-0.6080876 0.0537,-0.10412 0.143838,-0.2253087 0.202877,-0.2692112 0.151349,-0.1121709 0.473375,-0.199869 0.732063,-0.199869 0.179268,0 0.228637,-0.01395 0.267287,-0.076209 0.0644,-0.1089508 0.370326,-0.1103468 0.370326,0 0,0.2533254 -0.195368,0.3639933 -0.699863,0.3975919 -0.316656,0.0204 -0.348866,0.03113 -0.463715,0.1426555 -0.0644,0.066549 -0.124518,0.1587574 -0.124518,0.2063099 V 7.990144 L 42.27525,7.902125 c 0.167458,-0.1130298 0.377846,-0.1460905 0.630094,-0.098749 0.202878,0.03864 0.439025,0.1845201 0.479815,0.2971209 0.0107,0.03435 0.0429,0.074069 0.0644,0.089089 0.0215,0.0161 0.0429,0.1594013 0.0429,0.3408075 0,0.286064 -0.0107,0.3288935 -0.114859,0.4842159 -0.220048,0.3288926 -0.686983,0.4644652 -1.066969,0.3098938 z m 0.565694,-0.3335085 c 0.191068,-0.098749 0.253327,-0.2000839 0.253327,-0.4118687 0,-0.2267037 -0.0966,-0.3595923 -0.316656,-0.4515833 -0.136329,-0.05582 -0.163159,-0.05582 -0.329537,0 -0.220058,0.072989 -0.335986,0.2341105 -0.335986,0.4682221 0,0.3384455 0.410045,0.5612861 0.728852,0.3963029 z m 2.755441,0.3401634 C 45.437487,9.2636416 45.2067,9.0594768 45.120831,8.8783926 c -0.119149,-0.2508564 -0.0644,-0.6294484 0.114848,-0.8429502 0.177119,-0.2068458 0.412196,-0.3092498 0.708453,-0.3092498 0.201798,0 0.270497,0.01932 0.445465,0.1230137 0.163159,0.097679 0.228638,0.1664853 0.310217,0.3286776 0.121299,0.2388345 0.130959,0.4034958 0.0429,0.6610071 -0.0751,0.2138228 -0.286607,0.4072518 -0.538855,0.4961299 -0.201798,0.071919 -0.351006,0.069769 -0.568904,0 z M 46.15238,8.9873435 c 0.187838,-0.1175388 0.270497,-0.2452744 0.271567,-0.4222796 0,-0.3107528 -0.192138,-0.4980628 -0.519535,-0.4980628 -0.163158,0 -0.203947,0.01717 -0.325236,0.1342836 -0.127739,0.1240867 -0.138469,0.1511364 -0.138469,0.3531523 0,0.1780792 0.0215,0.2336816 0.0859,0.2986229 0.210388,0.1971849 0.444396,0.2474214 0.625804,0.1342836 z M 0.13846856,9.3292249 c -0.0106999,-0.01395 -0.0214998,-0.3698971 -0.0214998,-0.7912117 0,-0.8455252 -0.0106999,-0.8118206 0.24903741,-0.8118206 H 0.49588484 V 8.2467972 8.7675088 L 0.82005147,8.4267013 C 0.9993196,8.2392833 1.2225873,8.0049577 1.3159763,7.9059898 1.4125753,7.8072308 1.5145542,7.7264076 1.5489039,7.7267296 c 0.1534984,0 0.1588583,0.0322 0.1481284,0.8352213 v 0.773607 H 1.5263641 1.3556859 l -0.0107,-0.48282 c 0,-0.4512623 -0.0322,-0.5576372 -0.1105588,-0.4301155 -0.0322,0.052599 -0.6483433,0.7318514 -0.78467188,0.861841 -0.0750992,0.068699 -0.24902741,0.095529 -0.29947688,0.045079 z M 3.4456442,8.5381212 V 7.7217917 l 0.1610183,0.01181 0.1610083,0.01181 0.0107,0.3124698 0.0107,0.3123627 H 4.2227261 4.6563816 V 8.0483273 7.7265186 H 4.80344 c 0.085899,0 0.1663783,0.02362 0.1899981,0.052599 0.0322,0.0365 0.0429,0.281663 0.0322,0.8047366 l -0.0107,0.7524602 -0.1792581,0.01181 -0.1803381,0.01181 V 9.035979 8.7120234 H 4.2195361 3.7848106 V 9.033939 9.3557477 H 3.6141324 3.4434642 Z m 3.6989815,0.7911037 c -0.0107,-0.01395 -0.0215,-0.3028088 -0.0215,-0.6421143 V 8.070328 L 6.8494087,8.059598 C 6.5531418,8.0477883 6.5209422,8.0198786 6.5713916,7.8174367 l 0.0215,-0.092309 0.7277724,0.01073 0.7288425,0.01073 0.0107,0.1609043 0.0107,0.1610124 H 7.785379 7.498782 v 0.643724 0.6437243 H 7.3345437 c -0.085899,0 -0.1749582,-0.01181 -0.188918,-0.02576 z m 9.0874953,0 c -0.0107,-0.01395 -0.0215,-0.3610952 -0.0215,-0.7716749 0,-0.8256674 0,-0.8463852 0.234008,-0.8244874 l 0.125589,0.01181 0.0107,0.2366866 0.0107,0.2366875 h 0.329547 c 0.408966,0 0.633303,0.079429 0.754602,0.2598733 0.195358,0.290679 0.0429,0.7303484 -0.282307,0.8286724 -0.158868,0.04723 -1.115268,0.064409 -1.159278,0.02039 z m 1.02081,-0.3387684 c 0.107348,-0.04938 0.127738,-0.082649 0.127738,-0.1768982 0,-0.2086708 -0.0859,-0.2542913 -0.459415,-0.2542913 h -0.334907 v 0.2209087 c 0,0.1215097 0.0107,0.2321785 0.0215,0.2461324 0.0537,0.05045 0.513085,0.02469 0.641894,-0.03542 z M 25.9862,8.551861 V 7.7450854 h 0.170678 0.170668 l 0.0107,0.3124698 0.0107,0.3123627 h 0.413266 0.414335 l 0.0107,-0.3123627 0.0107,-0.3124698 0.180328,-0.01181 0.179258,-0.01181 v 0.8182615 0.8183684 l -0.179258,-0.01181 -0.180328,-0.01181 -0.0107,-0.3124708 -0.0107,-0.3123617 h -0.414335 -0.413266 l -0.0107,0.3123617 -0.0107,0.3124708 -0.181408,0.01181 -0.180328,0.01181 z m 3.331875,0 0.0107,-0.8047366 0.161008,-0.01181 0.159939,-0.01181 v 0.2483874 0.2482794 h 0.352086 c 0.406816,0 0.639753,0.088019 0.751382,0.284025 0.123449,0.2138228 0.0751,0.5712691 -0.0966,0.7005077 -0.154568,0.1174308 -0.312357,0.1457695 -0.826521,0.1485605 h -0.520605 z m 1.065899,0.4018849 c 0.115919,-0.1158208 0.122369,-0.1705653 0.0429,-0.2991599 -0.0537,-0.088019 -0.0751,-0.093389 -0.416485,-0.093389 h -0.356366 v 0.2461335 0.2461334 h 0.317726 c 0.290897,0 0.324167,-0.01073 0.416486,-0.099829 z m 0.608624,0.3543323 c -0.0107,-0.02684 -0.0107,-0.388682 0,-0.8046287 l 0.0107,-0.7563251 h 0.170669 0.169598 l 0.0107,0.8047366 v 0.8046287 h -0.171748 c -0.107339,0 -0.179259,-0.01932 -0.191068,-0.048299 z m 17.456878,0 c 0,-0.02684 -0.0107,-0.388682 0,-0.8046287 l 0.0107,-0.7563251 0.161018,-0.01181 c 0.112709,-0.01073 0.161009,0 0.163158,0.03757 0,0.02684 0,0.2497834 0,0.4945209 0,0.3692532 0,0.4449284 0.0537,0.4449284 0.0322,0 0.0966,-0.04508 0.134179,-0.098759 0.0429,-0.054739 0.243657,-0.2760811 0.445465,-0.4922659 0.297327,-0.3181587 0.388566,-0.3930829 0.474445,-0.3930829 h 0.107339 v 0.8162215 0.8162215 l -0.180328,-0.01181 -0.179268,-0.01181 -0.0107,-0.4920519 -0.0107,-0.4919439 -0.236158,0.2498904 c -0.128808,0.1375036 -0.334906,0.3631342 -0.457275,0.5014968 -0.178178,0.2015869 -0.244737,0.2515004 -0.332757,0.2515004 -0.0644,0 -0.118068,-0.02147 -0.128808,-0.048299 z M 19.975102,5.1189857 C 19.496367,5.0610263 18.987562,4.8702763 18.669836,4.6302608 18.490578,4.4947972 18.25228,4.2527428 18.25228,4.2064782 c 0,-0.0204 -0.0215,-0.03757 -0.0322,-0.03757 -0.0215,0 -0.0429,-0.02791 -0.0429,-0.061179 0,-0.066549 0.358516,-0.4157327 0.462635,-0.4510473 0.0429,-0.01503 0.128809,0.04186 0.271577,0.183982 0.459415,0.4594203 1.352496,0.678503 1.974,0.483894 0.324176,-0.1019739 0.459425,-0.1800111 0.577494,-0.3352265 0.0859,-0.1173238 0.107349,-0.1713162 0.107349,-0.3922239 0,-0.2326086 -0.0107,-0.2669572 -0.113789,-0.3755871 C 21.392046,3.1560414 21.281488,3.070707 21.207418,3.0324934 21.058211,2.9552043 20.614896,2.8638602 20.207,2.8255396 19.918253,2.7986999 19.520017,2.7178767 19.22161,2.6265287 18.620496,2.4417956 18.29418,2.0330399 18.29418,1.4634888 c 0,-0.1577914 0.0107,-0.3164417 0.0322,-0.3526164 0.0215,-0.0365 0.0644,-0.13396156 0.0966,-0.2172577 0.149209,-0.36098824 0.503435,-0.62515449 1.094879,-0.81750949 0.253327,-0.08157915 1.060529,-0.10090095 1.329956,-0.03112968 0.0859,0.02146978 0.202878,0.05259945 0.265137,0.06869929 0.165309,0.0429396 0.700933,0.31053777 0.700933,0.34939536 0,0.0182498 0.0215,0.0332797 0.0537,0.0332797 0.0322,0 0.133108,0.0762092 0.234007,0.16959923 L 22.283,0.83554835 22.1864,0.92141745 C 21.923412,1.1586409 21.755964,1.2915286 21.718394,1.2915286 c -0.0215,0 -0.0751,-0.03328 -0.119149,-0.072989 C 21.490826,1.1187104 21.043221,0.89533469 20.790964,0.8168685 20.354088,0.68054592 19.729365,0.74601924 19.416998,0.961242 19.26994,1.062143 19.125031,1.3035534 19.125031,1.4478199 c 0,0.1473795 0.143839,0.3452084 0.312367,0.4292566 0.171738,0.085869 0.746022,0.2089928 0.98431,0.2109258 0.109488,9.66e-4 0.267287,0.0161 0.351006,0.03435 0.0859,0.01825 0.253327,0.052599 0.378916,0.077289 0.124519,0.02469 0.243667,0.057959 0.265137,0.074069 0.0215,0.0161 0.0859,0.04079 0.144909,0.05474 0.279087,0.066549 0.627943,0.37827 0.769632,0.6874128 0.0859,0.1762542 0.0966,0.2625563 0.0966,0.575992 0,0.3802021 -0.0429,0.5194236 -0.214678,0.7845559 -0.208248,0.3137577 -0.601114,0.5561342 -1.103469,0.6812939 -0.281237,0.069769 -0.819011,0.098749 -1.130308,0.061179 z m 18.28985,-0.01073 C 38.072814,5.0502965 37.977275,4.9504645 37.957955,4.7878432 37.925755,4.517773 38.116823,4.324774 38.4206,4.3194061 c 0.299477,0 0.505575,0.2269196 0.452976,0.5089047 -0.0429,0.2195127 -0.345637,0.3595922 -0.608624,0.2799449 z m 9.069246,0.01825 c -0.372467,-0.066549 -0.908101,-0.2598723 -0.908101,-0.3270676 0,-0.0161 -0.0215,-0.02898 -0.0537,-0.02898 -0.0215,0 -0.133109,-0.081579 -0.236158,-0.1816211 -0.343486,-0.3318986 -0.455125,-0.5254346 -0.588224,-1.0214574 -0.0644,-0.2561163 -0.0751,-0.389648 -0.0644,-1.9084172 V 0.02576773 h 0.406826 0.407895 V 1.5641807 c 0,1.3711748 0,1.5687897 0.0644,1.8190021 0.132028,0.5261855 0.382126,0.7945387 0.89307,0.956945 0.329537,0.105195 0.751393,0.052599 1.100249,-0.1375035 0.136329,-0.074069 0.318807,-0.2648103 0.428295,-0.4479344 0.163159,-0.2754371 0.173889,-0.3969468 0.186769,-2.1005581 l 0.0107,-1.62836407 h 0.405746 0.406826 V 1.6778545 c 0,1.5308991 0,1.6708717 -0.0644,1.9086322 -0.0751,0.2439865 -0.133099,0.3998458 -0.252248,0.6202165 -0.0751,0.1300977 -0.448685,0.5095487 -0.577494,0.579749 -0.255477,0.1388996 -0.420785,0.2097448 -0.613993,0.2634153 -0.214688,0.060109 -0.816872,0.1073408 -0.98432,0.077289 z M 0,2.5646963 V 0.01802881 l 0.36925616,0.0011 c 0.20286789,5.37e-4 0.39071593,0.01394986 0.41647567,0.03112968 0.0321997,0.02253976 0.0428996,0.27554513 0.0428996,1.05419701 V 2.1291339 L 1.3148863,2.114104 C 1.7839714,2.099074 1.8065112,2.094784 1.9310299,1.9913053 2.0651985,1.8791345 2.5707833,1.2037445 2.5707833,1.1364412 c 0,-0.02147 0.0107,-0.03864 0.0322,-0.03864 0.0215,0 0.0537,-0.051519 0.075099,-0.11367484 0.0215,-0.0622593 0.0537,-0.11388881 0.075099,-0.11431781 0.0107,-3.22e-4 0.075099,-0.0847991 0.1373985,-0.18859804 0.064399,-0.10304792 0.1255887,-0.18816904 0.1416886,-0.18859903 0.0107,-4.29e-4 0.0322,-0.0182498 0.0322,-0.0407896 0,-0.0214698 0.064399,-0.12816467 0.1459885,-0.23657954 L 3.3564351,0.01794981 h 0.4486853 c 0.2662072,0 0.4529853,0.01824981 0.4604952,0.04078958 0,0.02146978 -0.0322,0.1051949 -0.096599,0.18709605 C 4.1046173,0.32741459 3.944679,0.56517512 3.8019104,0.77341695 3.6591519,0.98165779 3.4852537,1.2328362 3.4165545,1.3315901 c -0.075099,0.098759 -0.1266587,0.1889201 -0.1266587,0.200406 0,0.01181 -0.0215,0.041859 -0.0429,0.066549 -0.0215,0.02469 -0.1255887,0.1630513 -0.2318576,0.3065658 -0.2168277,0.29111 -0.3005568,0.382886 -0.4594152,0.5030007 l -0.1094888,0.082649 0.1073388,0.068699 c 0.1449085,0.093389 0.2017979,0.1496334 0.3778461,0.3763371 0.1373886,0.1756101 0.6225735,0.8763328 0.7138126,1.0309042 0.0215,0.03542 0.1449085,0.2129648 0.2747971,0.3953369 0.1298787,0.1823731 0.2372176,0.3470344 0.2372176,0.3659262 0,0.01932 0.0107,0.03972 0.0322,0.04723 0.0107,0.01073 0.064399,0.065479 0.1105589,0.1306347 0.064399,0.088019 0.075099,0.1290236 0.0429,0.1610113 C 4.2892063,5.120509 3.5818532,5.124799 3.4841743,5.07757 3.4412743,5.05717 3.3070561,4.882317 3.1761075,4.689425 3.0451483,4.4964262 2.8787701,4.2532988 2.8057808,4.1491778 2.7306816,4.0450569 2.5782132,3.8222162 2.4622844,3.653906 1.9803194,2.9526463 1.92451,2.9185116 1.2740167,2.9185116 H 0.83177135 v 1.0526941 c 0,0.768348 -0.0106999,1.0650389 -0.0428996,1.0982066 -0.0321997,0.02898 -0.17818814,0.045079 -0.41648566,0.045079 H 9.7998981e-4 Z m 5.574222,2.501477 C 5.520523,5.0103543 5.509823,0.18548107 5.563522,0.08189715 5.595722,0.02822771 5.660121,0.01856781 5.9896676,0.01856781 l 0.3917859,6.4399e-4 v 2.1478957 l 0.0107,2.1477876 1.2773567,0.01073 1.2773567,0.01073 v 0.3787 0.3786991 l -1.6670026,0.01073 c -1.2655569,0.01074 -1.6788126,0 -1.7142422,-0.0365 z m 4.561993,0.01932 c -0.0107,-0.01395 -0.0215,-1.155634 -0.0215,-2.5371146 V 0.03648962 l 1.561814,-0.01072989 c 0.859801,0 1.643382,-0.01072989 1.742141,-0.01502984 L 13.598999,0 v 0.39308291 0.39297591 l -1.313847,0.0107299 -1.312786,0.0107299 V 1.438041 c 0,0.3468184 0,0.6489843 0.0215,0.6716331 0.0215,0.02791 0.416485,0.04401 1.235497,0.051519 l 1.209727,0.01073 v 0.3597003 0.3598072 l -1.221537,0.01073 c -0.670883,0.01073 -1.221537,0.02254 -1.223687,0.03757 0,0.01503 0,0.3303956 -0.0107,0.7000787 l -0.0107,0.67217 h 1.321366 1.322446 V 4.70957 5.1071619 h -1.717462 c -0.94352,0 -1.727112,-0.01181 -1.741072,-0.02576 z m 4.711201,-0.02684 c -0.0322,-0.03435 -0.0429,-0.1722822 -0.0322,-0.388789 l 0.0107,-0.3351195 0.312357,-0.01073 0.312366,-0.01073 V 2.5555744 0.7977567 L 15.138273,0.7870268 14.825916,0.7762969 14.815216,0.43892341 c 0,-0.18548507 0,-0.35154134 0.0215,-0.36903816 0.0215,-0.01717982 0.491625,-0.03434964 1.053019,-0.03649962 h 1.020809 l 0.0107,0.38385201 0.0107,0.38374501 -0.275867,6.4399e-4 c -0.152429,3.22e-4 -0.293037,0.0128799 -0.314507,0.0279097 -0.0215,0.0182498 -0.0322,0.64866226 -0.0322,1.75889076 v 1.73109 l 0.302707,0.01073 0.303777,0.01073 V 4.7196759 5.098376 l -1.007929,0.01073 c -0.832972,0.01073 -1.01545,6.44e-4 -1.05302,-0.044009 z m 9.897927,0 c 0,-0.02576 -0.0215,-0.9930127 -0.0215,-2.1489687 V 0.80805359 L 23.966011,0.78873379 23.209259,0.769414 V 0.40058983 0.03165867 l 1.961119,-0.01072989 c 2.261677,-0.01180987 2.007279,-0.06869928 1.987959,0.44471338 l -0.0107,0.30280985 -0.767492,0.0107299 -0.766412,0.0107299 V 2.9246046 c 0,1.9116371 0,2.1370537 -0.0644,2.1576625 -0.119149,0.046159 -0.775002,0.02576 -0.793252,-0.02469 z m 3.588412,0.0161 c -0.0322,-0.02362 -0.0429,-0.5573152 -0.0322,-2.5402276 V 0.02446175 h 1.721752 c 1.349276,0 1.726042,0.01287986 1.745362,0.05044947 0.0215,0.03971959 0.0215,0.49774082 0,0.6629381 0,0.0364996 -0.310217,0.0493795 -1.321367,0.0568894 l -1.316006,0.0107299 V 1.4303011 c 0,0.3435984 0,0.6460863 0.0107,0.672062 0.0107,0.0365 0.291967,0.04723 1.223687,0.04723 h 1.206508 l 0.0215,0.085869 c 0.0107,0.04723 0.0215,0.2132868 0.0107,0.3692532 l -0.0107,0.2835951 -1.218317,0.01073 -1.219397,0.01073 -0.0215,0.1603674 c -0.0107,0.088019 -0.0215,0.3989868 -0.0107,0.6905248 l 0.0107,0.5301575 1.305266,0.01074 c 0.98539,0.01073 1.311707,0.02147 1.334256,0.056889 0.0537,0.076209 0.0322,0.6509162 -0.0107,0.7020107 -0.0537,0.052599 -3.346896,0.066549 -3.429545,0.01395 z m 4.694021,-0.01395 c -0.0644,-0.063329 -0.0644,-4.97375631 0,-5.0131509 0.0751,-0.04400954 2.153268,-0.02146977 2.361506,0.02683973 0.769642,0.17593216 1.238717,0.47809802 1.500634,0.96574797 0.109489,0.2045928 0.223268,0.6510242 0.222188,0.8738639 0,0.2344335 -0.133099,0.671633 -0.255467,0.8506781 -0.210388,0.3044199 -0.574274,0.5986418 -0.814722,0.6581082 -0.141688,0.03542 -0.156718,0.074069 -0.0537,0.1407245 0.126668,0.083729 0.406825,0.3633492 0.406825,0.4067158 0,0.02039 0.0107,0.03757 0.0322,0.03757 0.0215,0 0.119149,0.1281657 0.225418,0.284884 0.107339,0.1567174 0.262987,0.385569 0.348856,0.5086888 0.0859,0.1231207 0.145989,0.2420544 0.132029,0.2641662 -0.0107,0.02469 -0.186768,0.04079 -0.439026,0.04079 -0.465855,0 -0.442245,0.01181 -0.679463,-0.3391975 -0.0751,-0.1078779 -0.153498,-0.2194047 -0.179258,-0.2476354 -0.0215,-0.02791 -0.0537,-0.061189 -0.0537,-0.072989 0,-0.01181 -0.0322,-0.057959 -0.0644,-0.1030479 C 35.508379,4.0850825 35.38064,3.9632508 35.227152,3.8772707 35.062913,3.7860317 35.026424,3.7806617 34.45322,3.7806617 h -0.601114 v 0.6027197 c 0,0.3315766 0,0.6297704 -0.0215,0.6627241 -0.0215,0.049379 -0.0859,0.060109 -0.389646,0.060109 -0.235077,0 -0.384276,-0.0161 -0.413266,-0.04508 z M 35.232563,2.9641102 C 35.59753,2.9007808 35.724188,2.8488254 35.948536,2.6719272 36.268403,2.4207488 36.377892,1.8506607 36.184684,1.4519959 36.075195,1.2273312 36.030115,1.1721578 35.879837,1.0742628 35.51917,0.83993726 35.191774,0.77939689 34.383502,0.79710771 l -0.510944,0.0107299 V 1.8676166 c 0,0.5828619 0,1.0812467 0,1.1076524 0.0215,0.069769 0.93923,0.062259 1.362155,-0.01181 z m 4.950579,2.0917552 c -0.0322,-0.03542 -0.0429,-0.7404383 -0.0429,-2.4141009 0,-1.3000075 0.0107,-2.42333277 0.0215,-2.49621701 l 0.0215,-0.13256663 1.047649,0.01072989 c 0.576414,0 1.150688,0.02683972 1.275207,0.04937949 0.773932,0.13986554 1.308486,0.49548685 1.581133,1.05290906 0.120219,0.2462404 0.123439,0.2655612 0.123439,0.7485962 0,0.3453164 -0.0215,0.5292995 -0.0537,0.6058337 -0.0322,0.060109 -0.0751,0.1662713 -0.113779,0.2349696 -0.0537,0.1119568 -0.279087,0.3657111 -0.433656,0.4899049 -0.0322,0.02576 -0.162088,0.098749 -0.287677,0.1633723 -0.199658,0.1019749 -0.290897,0.186452 -0.200728,0.187955 0.0429,6.44e-4 0.314507,0.2634143 0.469086,0.4539453 0.246877,0.3052778 0.717032,1.0245703 0.693422,1.0618179 -0.0322,0.05582 -0.823311,0.04616 -0.89845,-0.01073 -0.0644,-0.052599 -0.311287,-0.384174 -0.367107,-0.5017127 -0.0859,-0.189457 -0.450824,-0.574167 -0.627942,-0.66852 C 42.189411,3.7839826 42.036993,3.7672378 41.35967,3.7780797 l -0.349937,0.01073 v 0.6172116 c 0,0.4295785 -0.0107,0.6310574 -0.0429,0.6627231 -0.0644,0.065479 -0.726693,0.061179 -0.781442,0 z M 42.390069,2.9641102 C 43.014793,2.8548363 43.307839,2.6106358 43.435568,2.0904603 43.489268,1.8640786 43.446268,1.63673 43.29603,1.3680548 43.047002,0.92849334 42.573627,0.77445894 41.540998,0.79710771 l -0.512015,0.0107299 V 1.8935933 c 0,1.0107235 0,1.0870427 0.0537,1.1032515 0.163158,0.04294 1.001499,0.02147 1.313856,-0.03328 z"
       id="path1261" />
  </g>
</svg>
